# xmcd
#
# Track frame offsets:
#	160
#	12260
#	32765
#	43702
#	56320
#	68132
#	81210
#	102455
#	115370
#
# Disc length: 1708 seconds
#
# Revision: 4
# Processed by: cddbd v1.5.2PL0 Copyright (c) Steve Scherf et al.
# Submitted via: audiograbber 1.83.01
#
DISCID=7106aa09
DTITLE=Various Artist - Saloon Country
DYEAR=1992
DGENRE=Oldies
TTITLE0=Shelly West - Jose Cuervo
TTITLE1=Merle Haggard - I Think I'll Just Stay Here And Drink
TTITLE2=Eddie Rabbitt - Drinkin' My Baby Off My Mind
TTITLE3=Gary Stewart - She's Actin' Single (I'm Drinkin' Doubles)
TTITLE4=Earl Thomas Conley - Hard Days And Honky Tonk Nights
TTITLE5=Oak Ridge Boys - Y'All Come Back Saloon
TTITLE6=Robin Lee - Black Velvet
TTITLE7=Hank Williams Jr. and Hank Williams Sr. - There's A Tear In My Beer
TTITLE8=David Frizzell - A Million Light Beers Ago
EXTD=
EXTT0=
EXTT1=
EXTT2=
EXTT3=
EXTT4=
EXTT5=
EXTT6=
EXTT7=
EXTT8=
PLAYORDER=
